# xmcd
#
# Track frame offsets: 
#        150
#        20520
#        43523
#        59736
#        85830
#        110687
#        126285
#        141426
#        166557
#        183629
#        223316
#        239119
#        253498
#        288324
#        315509
#        329030
#        343033
#
# Disc length: 4867 seconds
#
# Revision: 2
# Processed by: cddbd v1.5.2PL0 Copyright (c) Steve Scherf et al.
# Submitted via: ExactAudioCopy v0.95a3
#
DISCID=18130111
DTITLE=Peter Green - Collection
DYEAR=1993
DGENRE=Blues
TTITLE0=Loser Two Times
TTITLE1=Cryin'Won't Bring You Back
TTITLE2=Proud Pinto
TTITLE3=Got To See Her Tonight
TTITLE4=Last Train To San Antone
TTITLE5=What Am I Doing Here
TTITLE6=Bullet In The Sky
TTITLE7=Baby When The Sun Goes Down
TTITLE8=In The Skies
TTITLE9=White Sky
TTITLE10=Indian Lover
TTITLE11=Apostle
TTITLE12=A Fool No More
TTITLE13=The Clown
TTITLE14=Born On The Wild Side
TTITLE15=Seven Stars
TTITLE16=Strangers Blues
EXTD=YEAR: 1993
EXTT0=
EXTT1=
EXTT2=
EXTT3=
EXTT4=
EXTT5=
EXTT6=
EXTT7=
EXTT8=
EXTT9=
EXTT10=
EXTT11=
EXTT12=
EXTT13=
EXTT14=
EXTT15=
EXTT16=
PLAYORDER=
